<svg width="86" height="18" viewBox="0 0 86 18" fill="none" xmlns="http://www.w3.org/2000/svg">
                    <path
                        d="M17.5811 4.97706C17.5131 4.73906 17.4224 4.55773 17.3091 4.43306C17.2071 4.29706 17.0824 4.20639 16.9351 4.16106C16.7878 4.10439 16.6008 4.07606 16.3741 4.07606H16.1531V3.36206H20.8281V4.07606H20.4371C20.0971 4.07606 19.8421 4.14406 19.6721 4.28006C19.5021 4.40473 19.4171 4.60873 19.4171 4.89206C19.4171 4.94873 19.4228 5.01106 19.4341 5.07906C19.4454 5.14706 19.4624 5.21506 19.4851 5.28306C19.5078 5.35106 19.5304 5.43039 19.5531 5.52106L21.1171 10.9611C21.2191 11.3011 21.3098 11.6411 21.3891 11.9811C21.4798 12.3097 21.5648 12.6327 21.6441 12.9501C21.7234 13.2674 21.7914 13.5621 21.8481 13.8341C21.9388 13.3921 22.0408 12.9104 22.1541 12.3891C22.2674 11.8564 22.3978 11.3181 22.5451 10.7741L24.5681 3.48106H25.7921L27.9171 10.8421C28.0304 11.2161 28.1324 11.5844 28.2231 11.9471C28.3138 12.2984 28.3931 12.6384 28.4611 12.9671C28.5404 13.2844 28.6028 13.5734 28.6481 13.8341C28.7048 13.5621 28.7671 13.2844 28.8351 13.0011C28.9031 12.7064 28.9768 12.4004 29.0561 12.0831C29.1354 11.7544 29.2261 11.4087 29.3281 11.0461L30.8241 5.79306C30.8581 5.65706 30.8978 5.49839 30.9431 5.31706C30.9884 5.13573 31.0111 4.99973 31.0111 4.90906C31.0111 4.61439 30.9148 4.40473 30.7221 4.28006C30.5408 4.14406 30.2631 4.07606 29.8891 4.07606H29.4981V3.36206H33.6461V4.07606H33.3231C33.1078 4.07606 32.9208 4.11006 32.7621 4.17806C32.6148 4.23473 32.4844 4.35939 32.3711 4.55206C32.2578 4.74473 32.1444 5.02806 32.0311 5.40206L29.1581 15.5001H27.6281L24.8571 5.98006L22.2561 15.5001H20.6921L17.5811 4.97706Z"
                        fill="#3E20E4" fill-opacity="0.894118" />
                    <path
                        d="M37.6632 15.6701C36.4279 15.6701 35.4589 15.2621 34.7562 14.4461C34.0649 13.6301 33.7192 12.4854 33.7192 11.0121C33.7192 9.42535 34.0479 8.22969 34.7052 7.42502C35.3625 6.62035 36.2919 6.21802 37.4932 6.21802C38.5925 6.21802 39.4539 6.55802 40.0772 7.23802C40.7119 7.91802 41.0292 8.93235 41.0292 10.2811V11.0631H35.3682C35.3909 11.8904 35.4985 12.5647 35.6912 13.0861C35.8839 13.6074 36.1615 13.9927 36.5242 14.2421C36.8982 14.4801 37.3572 14.5991 37.9012 14.5991C38.2979 14.5991 38.6492 14.5424 38.9552 14.4291C39.2725 14.3157 39.5445 14.1684 39.7712 13.9871C40.0092 13.8057 40.1962 13.6131 40.3322 13.4091C40.4115 13.4431 40.4852 13.5111 40.5532 13.6131C40.6212 13.7151 40.6552 13.8397 40.6552 13.9871C40.6552 14.2137 40.5475 14.4574 40.3322 14.7181C40.1169 14.9787 39.7882 15.2054 39.3462 15.3981C38.9042 15.5794 38.3432 15.6701 37.6632 15.6701ZM39.3122 10.1451C39.3122 9.54435 39.2499 9.01735 39.1252 8.56402C39.0119 8.11069 38.8192 7.75935 38.5472 7.51002C38.2752 7.26069 37.9125 7.13602 37.4592 7.13602C37.0399 7.13602 36.6829 7.25502 36.3882 7.49302C36.1049 7.71969 35.8782 8.05402 35.7082 8.49602C35.5495 8.93802 35.4475 9.48769 35.4022 10.1451H39.3122Z"
                        fill="#3E20E4" fill-opacity="0.894118" />
                    <path
                        d="M45.452 15.6701C44.8853 15.6701 44.3923 15.6021 43.973 15.4661C43.5536 15.3301 43.225 15.1317 42.987 14.8711C42.7603 14.5991 42.647 14.2647 42.647 13.8681C42.647 13.5621 42.7093 13.3241 42.834 13.1541C42.9586 12.9841 43.1003 12.8651 43.259 12.7971C43.429 12.7291 43.582 12.6951 43.718 12.6951C43.718 13.0917 43.7746 13.4544 43.888 13.7831C44.0013 14.1117 44.194 14.3724 44.466 14.5651C44.738 14.7577 45.1006 14.8541 45.554 14.8541C46.1546 14.8541 46.6136 14.7124 46.931 14.4291C47.2596 14.1344 47.424 13.7604 47.424 13.3071C47.424 13.0237 47.3616 12.7914 47.237 12.6101C47.1236 12.4287 46.914 12.2531 46.608 12.0831C46.3133 11.9017 45.8883 11.6921 45.333 11.4541C44.755 11.1934 44.2733 10.9441 43.888 10.7061C43.514 10.4567 43.2306 10.1734 43.038 9.85611C42.8566 9.52744 42.766 9.11944 42.766 8.63211C42.766 7.86144 43.055 7.27211 43.633 6.86411C44.2223 6.44478 44.9986 6.23511 45.962 6.23511C46.506 6.23511 46.9593 6.30878 47.322 6.45611C47.696 6.59211 47.9736 6.77911 48.155 7.01711C48.3476 7.25511 48.444 7.51578 48.444 7.79911C48.444 8.10511 48.3363 8.35444 48.1209 8.54711C47.9169 8.72844 47.6166 8.81911 47.22 8.81911C47.22 8.25244 47.101 7.81044 46.863 7.49311C46.625 7.17578 46.2566 7.01711 45.758 7.01711C45.3726 7.01711 45.061 7.07378 44.823 7.18711C44.585 7.30044 44.4093 7.45911 44.296 7.66311C44.194 7.86711 44.143 8.10511 44.143 8.37711C44.143 8.66044 44.211 8.89844 44.347 9.09111C44.4943 9.28378 44.721 9.46511 45.027 9.63511C45.3443 9.79378 45.7523 9.97511 46.251 10.1791C46.8516 10.4284 47.339 10.6777 47.713 10.9271C48.087 11.1764 48.359 11.4654 48.529 11.7941C48.7103 12.1227 48.8009 12.5251 48.8009 13.0011C48.8009 13.8851 48.495 14.5537 47.883 15.0071C47.271 15.4491 46.4606 15.6701 45.452 15.6701Z"
                        fill="#3E20E4" fill-opacity="0.894118" />
                    <path
                        d="M54.4308 15.6701C53.1954 15.6701 52.2264 15.2621 51.5238 14.4461C50.8324 13.6301 50.4868 12.4854 50.4868 11.0121C50.4868 9.42535 50.8154 8.22969 51.4728 7.42502C52.1301 6.62035 53.0594 6.21802 54.2608 6.21802C55.3601 6.21802 56.2214 6.55802 56.8448 7.23802C57.4794 7.91802 57.7968 8.93235 57.7968 10.2811V11.0631H52.1358C52.1584 11.8904 52.2661 12.5647 52.4588 13.0861C52.6514 13.6074 52.9291 13.9927 53.2918 14.2421C53.6658 14.4801 54.1248 14.5991 54.6688 14.5991C55.0654 14.5991 55.4168 14.5424 55.7228 14.4291C56.0401 14.3157 56.3121 14.1684 56.5388 13.9871C56.7768 13.8057 56.9638 13.6131 57.0998 13.4091C57.1791 13.4431 57.2528 13.5111 57.3208 13.6131C57.3888 13.7151 57.4228 13.8397 57.4228 13.9871C57.4228 14.2137 57.3151 14.4574 57.0998 14.7181C56.8844 14.9787 56.5558 15.2054 56.1138 15.3981C55.6718 15.5794 55.1108 15.6701 54.4308 15.6701ZM56.0798 10.1451C56.0798 9.54435 56.0174 9.01735 55.8928 8.56402C55.7794 8.11069 55.5868 7.75935 55.3148 7.51002C55.0428 7.26069 54.6801 7.13602 54.2268 7.13602C53.8074 7.13602 53.4504 7.25502 53.1558 7.49302C52.8724 7.71969 52.6458 8.05402 52.4758 8.49602C52.3171 8.93802 52.2151 9.48769 52.1698 10.1451H56.0798Z"
                        fill="#3E20E4" fill-opacity="0.894118" />
                    <path
                        d="M59.2104 15.5001V14.7861H59.2614C59.5221 14.7861 59.7545 14.7577 59.9585 14.7011C60.1739 14.6444 60.3438 14.5311 60.4684 14.3611C60.5931 14.1797 60.6554 13.9134 60.6554 13.5621V8.25802C60.6554 7.91802 60.5875 7.66869 60.4515 7.51002C60.3269 7.34002 60.1568 7.23235 59.9414 7.18702C59.7374 7.13035 59.5108 7.10202 59.2614 7.10202H59.2104V6.38802H61.8284L62.1515 8.07102H62.2365C62.3839 7.73102 62.5424 7.41935 62.7124 7.13602C62.8824 6.85269 63.1091 6.63169 63.3924 6.47302C63.6758 6.30302 64.0668 6.21802 64.5654 6.21802C65.1888 6.21802 65.6478 6.32569 65.9424 6.54102C66.2484 6.75635 66.4014 7.06235 66.4014 7.45902C66.4014 7.81035 66.2768 8.09935 66.0274 8.32602C65.7894 8.55269 65.3871 8.66602 64.8204 8.66602C64.8204 8.34869 64.7921 8.09369 64.7354 7.90102C64.6788 7.70835 64.5825 7.56669 64.4465 7.47602C64.3219 7.38535 64.1461 7.34002 63.9194 7.34002C63.6021 7.34002 63.3358 7.46469 63.1204 7.71402C62.9051 7.96335 62.7352 8.28069 62.6105 8.66602C62.4859 9.05135 62.3952 9.45369 62.3385 9.87302C62.2819 10.2811 62.2534 10.6494 62.2534 10.9781V13.6471C62.2534 13.9757 62.3158 14.2251 62.4404 14.3951C62.5764 14.5537 62.7465 14.6614 62.9505 14.7181C63.1659 14.7634 63.3981 14.7861 63.6474 14.7861H64.1234V15.5001H59.2104Z"
                        fill="#3E20E4" fill-opacity="0.894118" />
                    <path
                        d="M67.9775 8.00306C67.8981 7.76506 67.8018 7.58373 67.6885 7.45906C67.5865 7.32306 67.4561 7.23239 67.2975 7.18706C67.1501 7.13039 66.9575 7.10206 66.7195 7.10206V6.38806H70.9695V7.10206H70.7485C70.4085 7.10206 70.1535 7.17006 69.9835 7.30606C69.8135 7.43073 69.7285 7.63473 69.7285 7.91806C69.7285 8.00873 69.7398 8.10506 69.7625 8.20706C69.7851 8.30906 69.8192 8.42239 69.8645 8.54706L71.0205 11.7601C71.1225 12.0321 71.2245 12.3324 71.3265 12.6611C71.4285 12.9784 71.5191 13.2844 71.5985 13.5791C71.6891 13.8624 71.7628 14.1061 71.8195 14.3101C71.8648 14.1514 71.9328 13.9417 72.0235 13.6811C72.1142 13.4204 72.2162 13.1427 72.3295 12.8481C72.4542 12.5421 72.5675 12.2531 72.6695 11.9811L73.8935 8.66606C73.9501 8.53006 73.9898 8.39973 74.0125 8.27506C74.0351 8.13906 74.0465 8.02573 74.0465 7.93506C74.0465 7.64039 73.9501 7.43073 73.7575 7.30606C73.5761 7.17006 73.2985 7.10206 72.9245 7.10206H72.8055V6.38806H76.4435V7.10206H76.2395C76.0242 7.10206 75.8428 7.13606 75.6955 7.20406C75.5595 7.27206 75.4348 7.40239 75.3215 7.59506C75.2082 7.78773 75.0835 8.06539 74.9475 8.42806L72.2615 15.5001H70.7145L67.9775 8.00306Z"
                        fill="#3E20E4" fill-opacity="0.894118" />
                    <path
                        d="M81.3752 15.6701C80.1399 15.6701 79.1709 15.2621 78.4682 14.4461C77.7769 13.6301 77.4312 12.4854 77.4312 11.0121C77.4312 9.42535 77.7599 8.22969 78.4172 7.42502C79.0745 6.62035 80.0039 6.21802 81.2052 6.21802C82.3045 6.21802 83.1659 6.55802 83.7892 7.23802C84.4239 7.91802 84.7411 8.93235 84.7411 10.2811V11.0631H79.0802C79.1029 11.8904 79.2105 12.5647 79.4032 13.0861C79.5959 13.6074 79.8735 13.9927 80.2362 14.2421C80.6102 14.4801 81.0692 14.5991 81.6132 14.5991C82.0099 14.5991 82.3612 14.5424 82.6672 14.4291C82.9845 14.3157 83.2565 14.1684 83.4832 13.9871C83.7212 13.8057 83.9082 13.6131 84.0442 13.4091C84.1235 13.4431 84.1972 13.5111 84.2652 13.6131C84.3332 13.7151 84.3672 13.8397 84.3672 13.9871C84.3672 14.2137 84.2595 14.4574 84.0442 14.7181C83.8289 14.9787 83.5002 15.2054 83.0582 15.3981C82.6162 15.5794 82.0552 15.6701 81.3752 15.6701ZM83.0242 10.1451C83.0242 9.54435 82.9619 9.01735 82.8372 8.56402C82.7239 8.11069 82.5312 7.75935 82.2592 7.51002C81.9872 7.26069 81.6245 7.13602 81.1712 7.13602C80.7519 7.13602 80.3949 7.25502 80.1002 7.49302C79.8169 7.71969 79.5902 8.05402 79.4202 8.49602C79.2615 8.93802 79.1595 9.48769 79.1142 10.1451H83.0242Z"
                        fill="#3E20E4" fill-opacity="0.894118" />
                </svg>