<svg width="156" height="58" viewBox="0 0 156 58" fill="none" xmlns="http://www.w3.org/2000/svg">
<rect x="5" y="5" width="146" height="48" rx="24" fill="#3E20E4" fill-opacity="0.894118"/>
<rect x="2.5" y="2.5" width="151" height="53" rx="26.5" stroke="#3E20E4" stroke-opacity="0.894118" stroke-width="5" stroke-linejoin="round"/>
<rect x="5" y="5" width="146" height="48" rx="24" fill="white"/>
<path d="M33.544 35.176C33.1387 35.176 32.696 35.1493 32.216 35.096C31.736 35.0533 31.2667 35 30.808 34.936C30.36 34.8613 29.976 34.7973 29.656 34.744L29.8 33C30.1307 33.0427 30.5147 33.0907 30.952 33.144C31.3893 33.1867 31.8213 33.224 32.248 33.256C32.6853 33.288 33.064 33.304 33.384 33.304C33.7893 33.304 34.12 33.2507 34.376 33.144C34.632 33.0373 34.8187 32.8773 34.936 32.664C35.064 32.44 35.128 32.1573 35.128 31.816C35.128 31.5387 35.0693 31.32 34.952 31.16C34.8453 30.9893 34.648 30.856 34.36 30.76C34.072 30.6533 33.672 30.552 33.16 30.456C32.52 30.3387 31.9707 30.2 31.512 30.04C31.064 29.88 30.696 29.6827 30.408 29.448C30.12 29.2027 29.9067 28.8933 29.768 28.52C29.64 28.1467 29.576 27.6933 29.576 27.16C29.576 26.328 29.7307 25.6773 30.04 25.208C30.3493 24.728 30.792 24.3867 31.368 24.184C31.944 23.9813 32.6213 23.88 33.4 23.88C33.752 23.88 34.152 23.9013 34.6 23.944C35.0587 23.976 35.5067 24.0187 35.944 24.072C36.392 24.1253 36.7707 24.184 37.08 24.248L36.984 26.008C36.664 25.9653 36.2907 25.928 35.864 25.896C35.448 25.8533 35.032 25.816 34.616 25.784C34.2107 25.752 33.864 25.736 33.576 25.736C33.1813 25.736 32.8507 25.7787 32.584 25.864C32.3173 25.9493 32.12 26.0827 31.992 26.264C31.864 26.4453 31.8 26.6747 31.8 26.952C31.8 27.272 31.864 27.5173 31.992 27.688C32.12 27.8587 32.3333 27.9973 32.632 28.104C32.9413 28.2107 33.3627 28.3227 33.896 28.44C34.5253 28.5787 35.0587 28.728 35.496 28.888C35.944 29.048 36.3013 29.24 36.568 29.464C36.8453 29.688 37.048 29.976 37.176 30.328C37.304 30.68 37.368 31.1227 37.368 31.656C37.368 32.5093 37.2133 33.1973 36.904 33.72C36.6053 34.232 36.168 34.6053 35.592 34.84C35.0267 35.064 34.344 35.176 33.544 35.176ZM42.0186 35.176C41.1333 35.176 40.4293 35.0267 39.9066 34.728C39.3946 34.4293 39.0266 33.976 38.8026 33.368C38.5786 32.76 38.4666 31.9973 38.4666 31.08C38.4666 30.088 38.6053 29.2773 38.8826 28.648C39.1706 28.0187 39.5866 27.5547 40.1306 27.256C40.6746 26.9467 41.3466 26.792 42.1466 26.792C43.3306 26.792 44.2213 27.0907 44.8186 27.688C45.4266 28.2853 45.7306 29.2293 45.7306 30.52L45.6346 31.704H40.6106C40.6213 32.3013 40.744 32.7493 40.9786 33.048C41.2133 33.3467 41.6186 33.496 42.1946 33.496C42.5253 33.496 42.888 33.4907 43.2826 33.48C43.6773 33.4587 44.0666 33.4373 44.4506 33.416C44.8453 33.3947 45.1813 33.3733 45.4586 33.352L45.5066 34.84C45.24 34.8827 44.904 34.9307 44.4986 34.984C44.0933 35.0373 43.672 35.08 43.2346 35.112C42.808 35.1547 42.4026 35.176 42.0186 35.176ZM40.6106 30.344H43.6026C43.6026 29.6187 43.4853 29.112 43.2506 28.824C43.0266 28.536 42.6586 28.392 42.1466 28.392C41.8053 28.392 41.5226 28.456 41.2986 28.584C41.0746 28.712 40.904 28.92 40.7866 29.208C40.6693 29.496 40.6106 29.8747 40.6106 30.344ZM50.3936 35.176C49.5083 35.176 48.8043 35.0267 48.2816 34.728C47.7696 34.4293 47.4016 33.976 47.1776 33.368C46.9536 32.76 46.8416 31.9973 46.8416 31.08C46.8416 30.088 46.9803 29.2773 47.2576 28.648C47.5456 28.0187 47.9616 27.5547 48.5056 27.256C49.0496 26.9467 49.7216 26.792 50.5216 26.792C51.7056 26.792 52.5963 27.0907 53.1936 27.688C53.8016 28.2853 54.1056 29.2293 54.1056 30.52L54.0096 31.704H48.9856C48.9963 32.3013 49.119 32.7493 49.3536 33.048C49.5883 33.3467 49.9936 33.496 50.5696 33.496C50.9003 33.496 51.263 33.4907 51.6576 33.48C52.0523 33.4587 52.4416 33.4373 52.8256 33.416C53.2203 33.3947 53.5563 33.3733 53.8336 33.352L53.8816 34.84C53.615 34.8827 53.279 34.9307 52.8736 34.984C52.4683 35.0373 52.047 35.08 51.6096 35.112C51.183 35.1547 50.7776 35.176 50.3936 35.176ZM48.9856 30.344H51.9776C51.9776 29.6187 51.8603 29.112 51.6256 28.824C51.4016 28.536 51.0336 28.392 50.5216 28.392C50.1803 28.392 49.8976 28.456 49.6736 28.584C49.4496 28.712 49.279 28.92 49.1616 29.208C49.0443 29.496 48.9856 29.8747 48.9856 30.344ZM59.005 35V26.968H61.133V27.48C61.293 27.3733 61.4957 27.272 61.741 27.176C61.9863 27.0693 62.2423 26.9787 62.509 26.904C62.7863 26.8293 63.053 26.792 63.309 26.792C63.7997 26.792 64.1997 26.8613 64.509 27C64.8183 27.128 65.0743 27.32 65.277 27.576C65.469 27.4587 65.709 27.3413 65.997 27.224C66.285 27.1067 66.5997 27.0053 66.941 26.92C67.2823 26.8347 67.613 26.792 67.933 26.792C68.5197 26.792 68.9997 26.872 69.373 27.032C69.757 27.1813 70.0557 27.4213 70.269 27.752C70.4823 28.072 70.6317 28.488 70.717 29C70.8023 29.5013 70.845 30.1093 70.845 30.824V35H68.717V31.016C68.717 30.4613 68.685 30.0133 68.621 29.672C68.5677 29.32 68.4503 29.064 68.269 28.904C68.0983 28.744 67.837 28.664 67.485 28.664C67.293 28.664 67.0903 28.6853 66.877 28.728C66.6637 28.76 66.4663 28.808 66.285 28.872C66.1143 28.936 65.9757 28.9947 65.869 29.048C65.9223 29.272 65.9597 29.56 65.981 29.912C66.013 30.264 66.029 30.632 66.029 31.016V35H63.901V31.048C63.901 30.4827 63.869 30.024 63.805 29.672C63.7517 29.32 63.6343 29.064 63.453 28.904C63.2717 28.744 63.0103 28.664 62.669 28.664C62.477 28.664 62.2797 28.6853 62.077 28.728C61.885 28.76 61.7037 28.808 61.533 28.872C61.373 28.936 61.2397 28.9947 61.133 29.048V35H59.005ZM75.9923 35.176C75.0856 35.176 74.3549 35.0267 73.8003 34.728C73.2563 34.4293 72.8616 33.9707 72.6163 33.352C72.3709 32.7227 72.2483 31.912 72.2483 30.92C72.2483 29.96 72.3763 29.1813 72.6323 28.584C72.8883 27.976 73.2936 27.528 73.8483 27.24C74.4029 26.9413 75.1176 26.792 75.9923 26.792C76.8776 26.792 77.5923 26.9413 78.1363 27.24C78.6909 27.528 79.0963 27.976 79.3523 28.584C79.6189 29.1813 79.7523 29.96 79.7523 30.92C79.7523 31.912 79.6296 32.7227 79.3843 33.352C79.1389 33.9707 78.7389 34.4293 78.1843 34.728C77.6403 35.0267 76.9096 35.176 75.9923 35.176ZM75.9923 33.416C76.4403 33.416 76.7763 33.336 77.0003 33.176C77.2243 33.0053 77.3736 32.7387 77.4483 32.376C77.5336 32.0027 77.5763 31.5173 77.5763 30.92C77.5763 30.3333 77.5283 29.8693 77.4323 29.528C77.3363 29.176 77.1763 28.9253 76.9523 28.776C76.7283 28.6267 76.4083 28.552 75.9923 28.552C75.5869 28.552 75.2669 28.6267 75.0323 28.776C74.8083 28.9253 74.6483 29.176 74.5523 29.528C74.4563 29.8693 74.4083 30.3333 74.4083 30.92C74.4083 31.5173 74.4456 32.0027 74.5203 32.376C74.6056 32.7387 74.7603 33.0053 74.9843 33.176C75.2083 33.336 75.5443 33.416 75.9923 33.416ZM81.2081 35V26.968H83.3361V27.912C83.5175 27.7733 83.7415 27.6293 84.0081 27.48C84.2748 27.32 84.5628 27.176 84.8721 27.048C85.1921 26.9093 85.4961 26.8187 85.7841 26.776V28.84C85.5068 28.8827 85.2135 28.9573 84.9041 29.064C84.5948 29.16 84.3015 29.2667 84.0241 29.384C83.7575 29.5013 83.5281 29.608 83.3361 29.704V35H81.2081ZM90.0499 35.176C89.1645 35.176 88.4605 35.0267 87.9379 34.728C87.4259 34.4293 87.0579 33.976 86.8339 33.368C86.6099 32.76 86.4979 31.9973 86.4979 31.08C86.4979 30.088 86.6365 29.2773 86.9139 28.648C87.2019 28.0187 87.6179 27.5547 88.1619 27.256C88.7059 26.9467 89.3779 26.792 90.1779 26.792C91.3619 26.792 92.2525 27.0907 92.8499 27.688C93.4579 28.2853 93.7619 29.2293 93.7619 30.52L93.6659 31.704H88.6419C88.6525 32.3013 88.7752 32.7493 89.0099 33.048C89.2445 33.3467 89.6499 33.496 90.2259 33.496C90.5565 33.496 90.9192 33.4907 91.3139 33.48C91.7085 33.4587 92.0979 33.4373 92.4819 33.416C92.8765 33.3947 93.2125 33.3733 93.4899 33.352L93.5379 34.84C93.2712 34.8827 92.9352 34.9307 92.5299 34.984C92.1245 35.0373 91.7032 35.08 91.2659 35.112C90.8392 35.1547 90.4339 35.176 90.0499 35.176ZM88.6419 30.344H91.6339C91.6339 29.6187 91.5165 29.112 91.2819 28.824C91.0579 28.536 90.6899 28.392 90.1779 28.392C89.8365 28.392 89.5539 28.456 89.3299 28.584C89.1059 28.712 88.9352 28.92 88.8179 29.208C88.7005 29.496 88.6419 29.8747 88.6419 30.344Z" fill="#3E20E4" fill-opacity="0.894118"/>
<path d="M116.3 33.85C116.1 33.65 116.004 33.4083 116.012 33.125C116.021 32.8417 116.125 32.6 116.325 32.4L119.15 29.575H108C107.717 29.575 107.479 29.479 107.287 29.287C107.096 29.0957 107 28.8583 107 28.575C107 28.2917 107.096 28.054 107.287 27.862C107.479 27.6707 107.717 27.575 108 27.575H119.15L116.3 24.725C116.1 24.525 116 24.2873 116 24.012C116 23.7373 116.1 23.5 116.3 23.3C116.5 23.1 116.738 23 117.013 23C117.288 23 117.525 23.1 117.725 23.3L122.3 27.875C122.4 27.975 122.471 28.0833 122.513 28.2C122.554 28.3167 122.575 28.4417 122.575 28.575C122.575 28.7083 122.554 28.8333 122.513 28.95C122.471 29.0667 122.4 29.175 122.3 29.275L117.7 33.875C117.517 34.0583 117.288 34.15 117.013 34.15C116.738 34.15 116.5 34.05 116.3 33.85Z" fill="#3E20E4" fill-opacity="0.894118"/>
</svg>
