<svg width="132" height="48" viewBox="0 0 132 48" fill="none" xmlns="http://www.w3.org/2000/svg">
<rect width="132" height="48" rx="24" fill="#FF00B8" fill-opacity="0.894118"/>
<path d="M25.008 30V19.072H32.272V20.912H27.216V23.568H31.312V25.376H27.216V28.16H32.272V30H25.008ZM33.0205 30L35.1645 26L33.0205 21.968H35.3245L36.7485 24.752L38.1885 21.968H40.3645L38.2685 25.952L40.3485 30H38.0285L36.6045 27.312L35.2285 30H33.0205ZM41.4581 33.376V21.968H43.5701L43.5861 22.48C43.7355 22.384 43.9221 22.2827 44.1461 22.176C44.3808 22.0693 44.6315 21.9787 44.8981 21.904C45.1648 21.8293 45.4261 21.792 45.6821 21.792C46.3968 21.792 46.9728 21.9467 47.4101 22.256C47.8581 22.5547 48.1835 23.0133 48.3861 23.632C48.5995 24.24 48.7061 25.0133 48.7061 25.952C48.7061 26.9547 48.5888 27.7653 48.3541 28.384C48.1195 29.0027 47.7408 29.456 47.2181 29.744C46.7061 30.032 46.0288 30.176 45.1861 30.176C44.9195 30.176 44.6315 30.1547 44.3221 30.112C44.0128 30.0693 43.7675 30.0267 43.5861 29.984V33.376H41.4581ZM44.8501 28.4C45.2768 28.4 45.6128 28.3093 45.8581 28.128C46.1035 27.9467 46.2741 27.6747 46.3701 27.312C46.4768 26.9387 46.5301 26.4693 46.5301 25.904C46.5301 25.0293 46.4075 24.4267 46.1621 24.096C45.9275 23.7547 45.5861 23.584 45.1381 23.584C44.9675 23.584 44.7861 23.6053 44.5941 23.648C44.4021 23.6907 44.2155 23.744 44.0341 23.808C43.8528 23.872 43.7035 23.936 43.5861 24V28.288C43.7141 28.2987 43.8955 28.32 44.1301 28.352C44.3755 28.384 44.6155 28.4 44.8501 28.4ZM50.2253 30V18.688H52.3533V30H50.2253ZM57.6329 30.176C56.7262 30.176 55.9955 30.0267 55.4409 29.728C54.8969 29.4293 54.5022 28.9707 54.2569 28.352C54.0115 27.7227 53.8889 26.912 53.8889 25.92C53.8889 24.96 54.0169 24.1813 54.2729 23.584C54.5289 22.976 54.9342 22.528 55.4889 22.24C56.0435 21.9413 56.7582 21.792 57.6329 21.792C58.5182 21.792 59.2329 21.9413 59.7769 22.24C60.3315 22.528 60.7369 22.976 60.9929 23.584C61.2595 24.1813 61.3929 24.96 61.3929 25.92C61.3929 26.912 61.2702 27.7227 61.0249 28.352C60.7795 28.9707 60.3795 29.4293 59.8249 29.728C59.2809 30.0267 58.5502 30.176 57.6329 30.176ZM57.6329 28.416C58.0809 28.416 58.4169 28.336 58.6409 28.176C58.8649 28.0053 59.0142 27.7387 59.0889 27.376C59.1742 27.0027 59.2169 26.5173 59.2169 25.92C59.2169 25.3333 59.1689 24.8693 59.0729 24.528C58.9769 24.176 58.8169 23.9253 58.5929 23.776C58.3689 23.6267 58.0489 23.552 57.6329 23.552C57.2275 23.552 56.9075 23.6267 56.6729 23.776C56.4489 23.9253 56.2889 24.176 56.1929 24.528C56.0969 24.8693 56.0489 25.3333 56.0489 25.92C56.0489 26.5173 56.0862 27.0027 56.1609 27.376C56.2462 27.7387 56.4009 28.0053 56.6249 28.176C56.8489 28.336 57.1849 28.416 57.6329 28.416ZM62.8488 30V21.968H64.9768V22.912C65.1581 22.7733 65.3821 22.6293 65.6488 22.48C65.9154 22.32 66.2034 22.176 66.5128 22.048C66.8328 21.9093 67.1368 21.8187 67.4248 21.776V23.84C67.1474 23.8827 66.8541 23.9573 66.5448 24.064C66.2354 24.16 65.9421 24.2667 65.6648 24.384C65.3981 24.5013 65.1688 24.608 64.9768 24.704V30H62.8488ZM71.6905 30.176C70.8052 30.176 70.1012 30.0267 69.5785 29.728C69.0665 29.4293 68.6985 28.976 68.4745 28.368C68.2505 27.76 68.1385 26.9973 68.1385 26.08C68.1385 25.088 68.2772 24.2773 68.5545 23.648C68.8425 23.0187 69.2585 22.5547 69.8025 22.256C70.3465 21.9467 71.0185 21.792 71.8185 21.792C73.0025 21.792 73.8932 22.0907 74.4905 22.688C75.0985 23.2853 75.4025 24.2293 75.4025 25.52L75.3065 26.704H70.2825C70.2932 27.3013 70.4158 27.7493 70.6505 28.048C70.8852 28.3467 71.2905 28.496 71.8665 28.496C72.1972 28.496 72.5598 28.4907 72.9545 28.48C73.3492 28.4587 73.7385 28.4373 74.1225 28.416C74.5172 28.3947 74.8532 28.3733 75.1305 28.352L75.1785 29.84C74.9118 29.8827 74.5758 29.9307 74.1705 29.984C73.7652 30.0373 73.3438 30.08 72.9065 30.112C72.4798 30.1547 72.0745 30.176 71.6905 30.176ZM70.2825 25.344H73.2745C73.2745 24.6187 73.1572 24.112 72.9225 23.824C72.6985 23.536 72.3305 23.392 71.8185 23.392C71.4772 23.392 71.1945 23.456 70.9705 23.584C70.7465 23.712 70.5758 23.92 70.4585 24.208C70.3412 24.496 70.2825 24.8747 70.2825 25.344Z" fill="white"/>
<path d="M97.3 28.85C97.1 28.65 97.004 28.4083 97.012 28.125C97.0207 27.8417 97.125 27.6 97.325 27.4L100.15 24.575H89C88.7167 24.575 88.479 24.479 88.287 24.287C88.0957 24.0957 88 23.8583 88 23.575C88 23.2917 88.0957 23.054 88.287 22.862C88.479 22.6707 88.7167 22.575 89 22.575H100.15L97.3 19.725C97.1 19.525 97 19.2873 97 19.012C97 18.7373 97.1 18.5 97.3 18.3C97.5 18.1 97.7377 18 98.013 18C98.2877 18 98.525 18.1 98.725 18.3L103.3 22.875C103.4 22.975 103.471 23.0833 103.513 23.2C103.554 23.3167 103.575 23.4417 103.575 23.575C103.575 23.7083 103.554 23.8333 103.513 23.95C103.471 24.0667 103.4 24.175 103.3 24.275L98.7 28.875C98.5167 29.0583 98.2877 29.15 98.013 29.15C97.7377 29.15 97.5 29.05 97.3 28.85Z" fill="white"/>
</svg>
