<svg width="136" height="58" viewBox="0 0 136 58" fill="none" xmlns="http://www.w3.org/2000/svg">
<rect x="3" y="2.5" width="130" height="53" rx="26.5" fill="#3E20E4" fill-opacity="0.894118"/>
<rect x="3" y="2.5" width="130" height="53" rx="26.5" stroke="white" stroke-width="5" stroke-linejoin="round"/>
<rect x="5.5" y="5" width="125" height="48" rx="24" fill="#3E20E4" fill-opacity="0.894118"/>
<path d="M34.444 35.176C33.5907 35.176 32.8867 35.0693 32.332 34.856C31.788 34.632 31.356 34.2907 31.036 33.832C30.716 33.3733 30.492 32.792 30.364 32.088C30.2467 31.3733 30.188 30.5253 30.188 29.544C30.188 28.552 30.2467 27.704 30.364 27C30.492 26.2853 30.716 25.6987 31.036 25.24C31.356 24.7813 31.7933 24.44 32.348 24.216C32.9133 23.992 33.6333 23.88 34.508 23.88C34.86 23.88 35.228 23.9013 35.612 23.944C35.996 23.9867 36.364 24.04 36.716 24.104C37.0787 24.1573 37.388 24.216 37.644 24.28L37.58 26.04C37.3667 25.9973 37.1 25.96 36.78 25.928C36.46 25.8853 36.1347 25.8533 35.804 25.832C35.4733 25.8107 35.164 25.8 34.876 25.8C34.364 25.8 33.948 25.864 33.628 25.992C33.308 26.12 33.0573 26.3333 32.876 26.632C32.7053 26.9307 32.588 27.32 32.524 27.8C32.46 28.2693 32.428 28.8507 32.428 29.544C32.428 30.2267 32.46 30.808 32.524 31.288C32.588 31.7573 32.7053 32.1413 32.876 32.44C33.0467 32.728 33.292 32.9413 33.612 33.08C33.9427 33.208 34.3693 33.272 34.892 33.272C35.3187 33.272 35.788 33.2507 36.3 33.208C36.8227 33.1547 37.2547 33.1067 37.596 33.064L37.644 34.808C37.388 34.8613 37.084 34.92 36.732 34.984C36.38 35.0373 36.0067 35.08 35.612 35.112C35.2173 35.1547 34.828 35.176 34.444 35.176ZM41.1166 35.176C40.2846 35.176 39.6553 34.968 39.2286 34.552C38.8126 34.1253 38.6046 33.4853 38.6046 32.632C38.6046 32.0347 38.7113 31.5707 38.9246 31.24C39.138 30.8987 39.4526 30.6533 39.8686 30.504C40.2953 30.344 40.8126 30.248 41.4206 30.216L43.3726 30.04V29.56C43.3726 29.176 43.2766 28.9093 43.0846 28.76C42.8926 28.6 42.61 28.52 42.2366 28.52C41.938 28.52 41.5913 28.5307 41.1966 28.552C40.8126 28.5733 40.4286 28.6 40.0446 28.632C39.6713 28.664 39.346 28.696 39.0686 28.728L39.0046 27.224C39.282 27.16 39.6126 27.096 39.9966 27.032C40.3913 26.9573 40.802 26.8987 41.2286 26.856C41.6553 26.8133 42.05 26.792 42.4126 26.792C43.0953 26.792 43.666 26.8773 44.1246 27.048C44.5833 27.2187 44.93 27.5013 45.1646 27.896C45.3993 28.28 45.5166 28.8027 45.5166 29.464V33.128C45.538 33.2773 45.618 33.3947 45.7566 33.48C45.8953 33.5547 46.0553 33.608 46.2366 33.64L46.1886 35.112C46.018 35.112 45.8473 35.112 45.6766 35.112C45.5166 35.1227 45.362 35.1227 45.2126 35.112C45.0633 35.112 44.93 35.1013 44.8126 35.08C44.5673 35.048 44.354 34.984 44.1726 34.888C44.002 34.792 43.8633 34.6907 43.7566 34.584C43.586 34.6587 43.3566 34.744 43.0686 34.84C42.7806 34.936 42.466 35.016 42.1246 35.08C41.794 35.144 41.458 35.176 41.1166 35.176ZM41.6286 33.592C41.8313 33.592 42.0446 33.5707 42.2686 33.528C42.4926 33.4853 42.7006 33.4373 42.8926 33.384C43.0953 33.32 43.2553 33.2613 43.3726 33.208V31.368L41.7406 31.512C41.3886 31.544 41.1326 31.6507 40.9726 31.832C40.8233 32.0027 40.7486 32.248 40.7486 32.568C40.7486 32.888 40.818 33.1387 40.9566 33.32C41.106 33.5013 41.33 33.592 41.6286 33.592ZM47.4596 35V23.688H49.5876V35H47.4596ZM51.4753 35V23.688H53.6033V35H51.4753ZM61.4713 35.176C60.7779 35.176 60.2393 35.032 59.8553 34.744C59.4819 34.4453 59.2153 33.9973 59.0553 33.4C58.9059 32.8027 58.8313 32.0507 58.8313 31.144V26.968H60.9593V31.048C60.9593 31.6133 60.9859 32.0613 61.0393 32.392C61.1033 32.7227 61.2259 32.9573 61.4073 33.096C61.5886 33.2347 61.8499 33.304 62.1913 33.304C62.5219 33.304 62.8313 33.2613 63.1193 33.176C63.4073 33.0907 63.6366 33.0053 63.8073 32.92V26.968H65.9353V35H63.8233V34.504C63.4606 34.7067 63.0979 34.872 62.7352 35C62.3833 35.1173 61.9619 35.176 61.4713 35.176ZM70.5885 35.176C70.2365 35.176 69.8578 35.1547 69.4525 35.112C69.0578 35.08 68.6845 35.0373 68.3325 34.984C67.9912 34.9307 67.6978 34.8773 67.4525 34.824L67.5165 33.24C67.7938 33.272 68.1032 33.3093 68.4445 33.352C68.7965 33.3947 69.1378 33.432 69.4685 33.464C69.8098 33.4853 70.0872 33.496 70.3005 33.496C70.6205 33.496 70.8818 33.4693 71.0845 33.416C71.2978 33.3627 71.4578 33.2773 71.5645 33.16C71.6712 33.032 71.7245 32.8507 71.7245 32.616C71.7245 32.4347 71.6765 32.296 71.5805 32.2C71.4952 32.104 71.3245 32.024 71.0685 31.96C70.8232 31.8853 70.4605 31.8107 69.9805 31.736C69.3832 31.6507 68.8872 31.528 68.4925 31.368C68.1085 31.208 67.8258 30.9733 67.6445 30.664C67.4632 30.344 67.3725 29.912 67.3725 29.368C67.3725 28.7067 67.5165 28.1893 67.8045 27.816C68.0925 27.4427 68.4765 27.1813 68.9565 27.032C69.4365 26.872 69.9592 26.792 70.5245 26.792C70.8978 26.792 71.2818 26.8133 71.6765 26.856C72.0712 26.888 72.4445 26.9307 72.7965 26.984C73.1485 27.0373 73.4418 27.0907 73.6765 27.144L73.6125 28.76C73.3458 28.7173 73.0365 28.68 72.6845 28.648C72.3325 28.6053 71.9805 28.5733 71.6285 28.552C71.2872 28.5307 70.9992 28.52 70.7645 28.52C70.5192 28.52 70.3005 28.5467 70.1085 28.6C69.9165 28.6427 69.7672 28.7173 69.6605 28.824C69.5645 28.9307 69.5165 29.0907 69.5165 29.304C69.5165 29.4533 69.5592 29.576 69.6445 29.672C69.7298 29.768 69.8898 29.8533 70.1245 29.928C70.3698 29.992 70.7218 30.056 71.1805 30.12C71.8418 30.216 72.3698 30.3493 72.7645 30.52C73.1592 30.6907 73.4418 30.936 73.6125 31.256C73.7938 31.576 73.8845 32.008 73.8845 32.552C73.8845 33.192 73.7565 33.704 73.5005 34.088C73.2445 34.472 72.8712 34.7493 72.3805 34.92C71.8898 35.0907 71.2925 35.176 70.5885 35.176Z" fill="white"/>
<path d="M111.95 39C109.8 39 107.704 38.5207 105.663 37.562C103.621 36.604 101.813 35.3373 100.238 33.762C98.6627 32.1873 97.396 30.379 96.438 28.337C95.4793 26.2957 95 24.2 95 22.05C95 21.75 95.1 21.5 95.3 21.3C95.5 21.1 95.75 21 96.05 21H100.1C100.333 21 100.542 21.075 100.725 21.225C100.908 21.375 101.017 21.5667 101.05 21.8L101.7 25.3C101.733 25.5333 101.729 25.7457 101.688 25.937C101.646 26.129 101.55 26.3 101.4 26.45L98.975 28.9C99.675 30.1 100.554 31.225 101.613 32.275C102.671 33.325 103.833 34.2333 105.1 35L107.45 32.65C107.6 32.5 107.796 32.3873 108.038 32.312C108.279 32.2373 108.517 32.2167 108.75 32.25L112.2 32.95C112.433 33 112.625 33.1123 112.775 33.287C112.925 33.4623 113 33.6667 113 33.9V37.95C113 38.25 112.9 38.5 112.7 38.7C112.5 38.9 112.25 39 111.95 39ZM98.025 27L99.675 25.35L99.25 23H97.025C97.1083 23.6833 97.225 24.3583 97.375 25.025C97.525 25.6917 97.7417 26.35 98.025 27ZM106.975 35.95C107.625 36.2333 108.288 36.4583 108.963 36.625C109.638 36.7917 110.317 36.9 111 36.95V34.75L108.65 34.275L106.975 35.95Z" fill="white"/>
</svg>
