<svg width="148" height="30" viewBox="0 0 148 30" fill="none" xmlns="http://www.w3.org/2000/svg">
<rect width="128" height="20" transform="translate(10 10)" fill="#E7E7F4"/>
<path d="M23.7773 12.5033L22.0051 12.5C20.014 12.5 18.7273 14.0294 18.7273 16.3966V18.1932H16.9454C16.7914 18.1932 16.6667 18.3378 16.6667 18.5162V21.1193C16.6667 21.2977 16.7915 21.4421 16.9454 21.4421H18.7273V28.0105C18.7273 28.1889 18.852 28.3333 19.006 28.3333H21.3309C21.4848 28.3333 21.6095 28.1887 21.6095 28.0105V21.4421H23.693C23.847 21.4421 23.9717 21.2977 23.9717 21.1193L23.9725 18.5162C23.9725 18.4306 23.9431 18.3485 23.8909 18.2879C23.8388 18.2273 23.7677 18.1932 23.6937 18.1932H21.6095V16.6702C21.6095 15.9382 21.7601 15.5666 22.5832 15.5666L23.777 15.5661C23.9309 15.5661 24.0556 15.4215 24.0556 15.2432V12.8261C24.0556 12.6481 23.931 12.5036 23.7773 12.5033Z" fill="black"/>
<path d="M63.4669 14.9813C63.1102 15.1491 62.7398 15.2814 62.3599 15.3773C62.7786 14.9552 63.0934 14.4274 63.271 13.8381C63.3217 13.6699 63.1494 13.5245 63.0062 13.6145C62.4776 13.9471 61.9082 14.1966 61.3138 14.3562C61.2793 14.3655 61.2437 14.3702 61.208 14.3702C61.0997 14.3702 60.9945 14.3275 60.9117 14.2501C60.2793 13.6589 59.4659 13.3333 58.6214 13.3333C58.256 13.3333 57.887 13.3937 57.5248 13.5128C56.4024 13.8821 55.5364 14.8642 55.2647 16.0758C55.1628 16.5303 55.1352 16.9852 55.1826 17.4278C55.1881 17.4787 55.1654 17.5142 55.1514 17.5309C55.1269 17.56 55.0921 17.5768 55.0559 17.5768C55.0519 17.5768 55.0478 17.5766 55.0436 17.5762C52.5868 17.334 50.3714 16.0785 48.8054 14.0409C48.7255 13.9369 48.5724 13.9497 48.5087 14.0655C48.2021 14.6236 48.04 15.2618 48.04 15.9114C48.04 16.9068 48.417 17.8448 49.0719 18.5287C48.7965 18.4594 48.5299 18.3503 48.2823 18.2044C48.1626 18.1339 48.0152 18.2246 48.0135 18.3699C47.9964 19.8486 48.8125 21.1644 50.0352 21.7569C50.0106 21.7576 49.9859 21.7579 49.9613 21.7579C49.7675 21.7579 49.5712 21.738 49.3781 21.6988C49.2432 21.6715 49.1299 21.8073 49.1718 21.946C49.5686 23.2603 50.6354 24.229 51.912 24.4489C50.8525 25.2034 49.6187 25.6013 48.3345 25.6013L47.9342 25.6011C47.8108 25.6011 47.7065 25.6864 47.6751 25.8131C47.6441 25.9379 47.7012 26.0696 47.8063 26.1345C49.2534 27.0278 50.9039 27.4999 52.5803 27.4999C54.0476 27.4999 55.4202 27.191 56.6599 26.5819C57.7964 26.0234 58.8008 25.2251 59.645 24.2092C60.4314 23.2628 61.0464 22.1703 61.4727 20.962C61.8792 19.8103 62.094 18.5814 62.094 17.4081V17.3522C62.094 17.1638 62.1743 16.9865 62.3144 16.8659C62.8462 16.4079 63.3093 15.8687 63.6908 15.2634C63.7915 15.1036 63.6326 14.9033 63.4669 14.9813Z" fill="black"/>
<path d="M94.5 20C94.5 20.4945 94.3534 20.9778 94.0787 21.3889C93.804 21.8 93.4135 22.1205 92.9567 22.3097C92.4999 22.4989 91.9972 22.5484 91.5123 22.452C91.0273 22.3555 90.5819 22.1174 90.2322 21.7678C89.8826 21.4181 89.6445 20.9727 89.548 20.4877C89.4516 20.0028 89.5011 19.5001 89.6903 19.0433C89.8795 18.5865 90.2 18.196 90.6111 17.9213C91.0222 17.6466 91.5055 17.5 92 17.5C92.6624 17.5021 93.2971 17.7661 93.7655 18.2345C94.2339 18.7029 94.4979 19.3376 94.5 20ZM99.8125 16.5625V23.4375C99.8125 24.5978 99.3516 25.7106 98.5311 26.5311C97.7106 27.3516 96.5978 27.8125 95.4375 27.8125H88.5625C87.4022 27.8125 86.2894 27.3516 85.4689 26.5311C84.6484 25.7106 84.1875 24.5978 84.1875 23.4375V16.5625C84.1875 15.4022 84.6484 14.2894 85.4689 13.4689C86.2894 12.6484 87.4022 12.1875 88.5625 12.1875H95.4375C96.5978 12.1875 97.7106 12.6484 98.5311 13.4689C99.3516 14.2894 99.8125 15.4022 99.8125 16.5625ZM95.75 20C95.75 19.2583 95.5301 18.5333 95.118 17.9166C94.706 17.2999 94.1203 16.8193 93.4351 16.5355C92.7498 16.2516 91.9958 16.1774 91.2684 16.3221C90.541 16.4668 89.8728 16.8239 89.3483 17.3483C88.8239 17.8728 88.4668 18.541 88.3221 19.2684C88.1774 19.9958 88.2516 20.7498 88.5355 21.4351C88.8193 22.1203 89.2999 22.706 89.9166 23.118C90.5333 23.5301 91.2583 23.75 92 23.75C92.9946 23.75 93.9484 23.3549 94.6517 22.6517C95.3549 21.9484 95.75 20.9946 95.75 20ZM97 15.9375C97 15.7521 96.945 15.5708 96.842 15.4167C96.739 15.2625 96.5926 15.1423 96.4213 15.0714C96.25 15.0004 96.0615 14.9818 95.8796 15.018C95.6977 15.0542 95.5307 15.1435 95.3996 15.2746C95.2685 15.4057 95.1792 15.5727 95.143 15.7546C95.1068 15.9365 95.1254 16.125 95.1964 16.2963C95.2673 16.4676 95.3875 16.614 95.5417 16.717C95.6958 16.82 95.8771 16.875 96.0625 16.875C96.3111 16.875 96.5496 16.7762 96.7254 16.6004C96.9012 16.4246 97 16.1861 97 15.9375Z" fill="black"/>
<path d="M128.833 27.5H125.5V17.5H128.833V19.1667C129.184 18.7202 129.63 18.357 130.137 18.103C130.645 17.849 131.203 17.7105 131.771 17.6975C132.764 17.703 133.714 18.102 134.413 18.807C135.112 19.512 135.503 20.4655 135.5 21.4583V27.5H132.167V21.875C132.102 21.4246 131.877 21.0127 131.533 20.7151C131.189 20.4174 130.749 20.254 130.294 20.255C130.091 20.2614 129.89 20.3089 129.706 20.3947C129.521 20.4804 129.355 20.6026 129.219 20.7539C129.082 20.9051 128.978 21.0824 128.912 21.2751C128.845 21.4678 128.819 21.6718 128.833 21.875V27.5ZM123.833 27.5H120.5V17.5H123.833V27.5ZM122.167 15.8333C121.725 15.8333 121.301 15.6577 120.988 15.3452C120.676 15.0326 120.5 14.6087 120.5 14.1667C120.5 13.7246 120.676 13.3007 120.988 12.9882C121.301 12.6756 121.725 12.5 122.167 12.5C122.609 12.5 123.033 12.6756 123.345 12.9882C123.658 13.3007 123.833 13.7246 123.833 14.1667C123.833 14.6087 123.658 15.0326 123.345 15.3452C123.033 15.6577 122.609 15.8333 122.167 15.8333Z" fill="black"/>
</svg>
